HIERARCHY
ROOT Hips
{
	OFFSET -0.001795 -0.223333 0.028219
	CHANNELS 6 Xposition Yposition Zposition Zrotation Yrotation Xrotation 
	JOINT LeftUpLeg
	{
		OFFSET 0.069520 -0.091406 -0.006815
		CHANNELS 3 Zrotation Yrotation Xrotation
		JOINT LeftLeg
		{
			OFFSET 0.034277 -0.375199 -0.004496
			CHANNELS 3 Zrotation Yrotation Xrotation
			JOINT LeftFoot
			{
				OFFSET -0.013596 -0.397961 -0.043693
				CHANNELS 3 Zrotation Yrotation Xrotation
				JOINT LeftToe
				{
					OFFSET 0.026358 -0.055791 0.119288
					CHANNELS 3 Zrotation Yrotation Xrotation
					End Site
					{
						OFFSET 0.000000 0.000000 0.000000
					}
				}
			}
		}
	}
	JOINT RightUpLeg
	{
		OFFSET -0.067670 -0.090522 -0.004320
		CHANNELS 3 Zrotation Yrotation Xrotation
		JOINT RightLeg
		{
			OFFSET -0.038290 -0.382569 -0.008850
			CHANNELS 3 Zrotation Yrotation Xrotation
			JOINT RightFoot
			{
				OFFSET 0.015774 -0.398415 -0.042312
				CHANNELS 3 Zrotation Yrotation Xrotation
				JOINT RightToe
				{
					OFFSET -0.025372 -0.048144 0.123348
					CHANNELS 3 Zrotation Yrotation Xrotation
					End Site
					{
						OFFSET 0.000000 0.000000 0.000000
					}
				}
			}
		}
	}
	JOINT Spine
	{
		OFFSET -0.002533 0.108963 -0.026696
		CHANNELS 3 Zrotation Yrotation Xrotation
		JOINT Spine1
		{
			OFFSET 0.005487 0.135180 0.001092
			CHANNELS 3 Zrotation Yrotation Xrotation
			JOINT Spine2
			{
				OFFSET 0.001457 0.052922 0.025425
				CHANNELS 3 Zrotation Yrotation Xrotation
				JOINT Neck
				{
					OFFSET -0.002778 0.213870 -0.042857
					CHANNELS 3 Zrotation Yrotation Xrotation
					JOINT Head
					{
						OFFSET 0.005152 0.064970 0.051349
						CHANNELS 3 Zrotation Yrotation Xrotation
						End Site
						{
							OFFSET 0.000000 0.000000 0.000000
						}
					}
				}
				JOINT LeftShoulder
				{
					OFFSET 0.078845 0.121749 -0.034090
					CHANNELS 3 Zrotation Yrotation Xrotation
					JOINT LeftArm
					{
						OFFSET 0.090977 0.030469 -0.008868
						CHANNELS 3 Zrotation Yrotation Xrotation
						JOINT LeftForeArm
						{
							OFFSET 0.259612 -0.012772 -0.027456
							CHANNELS 3 Zrotation Yrotation Xrotation
							JOINT LeftHand
							{
								OFFSET 0.249234 0.008986 -0.001171
								CHANNELS 3 Zrotation Yrotation Xrotation
								End Site
								{
									OFFSET 0.000000 0.000000 0.000000
								}
							}
						}
					}
				}
				JOINT RightShoulder
				{
					OFFSET -0.081759 0.118833 -0.038615
					CHANNELS 3 Zrotation Yrotation Xrotation
					JOINT RightArm
					{
						OFFSET -0.096012 0.032551 -0.009143
						CHANNELS 3 Zrotation Yrotation Xrotation
						JOINT RightForeArm
						{
							OFFSET -0.253742 -0.013329 -0.021401
							CHANNELS 3 Zrotation Yrotation Xrotation
							JOINT RightHand
							{
								OFFSET -0.255298 0.007772 -0.005559
								CHANNELS 3 Zrotation Yrotation Xrotation
								End Site
								{
									OFFSET 0.000000 0.000000 0.000000
								}
							}
						}
					}
				}
			}
		}
	}
}
MOTION
Frames: 14
Frame Time: 0.050000
-0.083821 0.903498 0.214762 0.801078 -3.126212 3.939114 9.075581 -0.270322 -20.826189 -8.419059 1.697559 14.875478 7.430838 15.930388 6.816997 0.000000 0.000000 0.000000 -11.927702 0.500920 -21.328931 9.665087 -1.664608 17.873484 -4.044686 -12.439414 9.057820 0.000000 0.000000 0.000000 4.598663 -3.021081 40.506003 -5.153112 1.768387 -24.731981 -5.551560 8.042285 23.762772 16.480540 -1.958986 -48.877292 0.000000 0.000000 0.000000 -5.585075 -29.822236 10.856886 -39.545210 -42.196070 7.139947 70.765817 -69.076425 -48.794227 0.000000 0.000000 0.000000 15.944603 14.820647 8.264168 53.709220 52.178793 18.737222 -43.800980 61.047270 -20.010126 0.000000 0.000000 0.000000 
-0.083929 0.903439 0.214661 0.626047 -3.294611 4.017346 9.169952 -0.245480 -20.838904 -8.217328 1.652042 14.827890 7.511383 16.058450 6.753828 0.000000 0.000000 0.000000 -11.777559 0.536643 -21.445980 9.759813 -1.677463 17.852021 -3.980156 -12.343796 9.128536 0.000000 0.000000 0.000000 4.628283 -3.015010 40.575798 -5.036654 1.740334 -24.628690 -5.682517 7.608778 23.689261 16.512063 -2.077866 -48.482861 0.000000 0.000000 0.000000 -5.184857 -29.710169 10.804868 -39.444427 -42.750677 7.336254 69.890386 -67.775169 -46.875799 0.000000 0.000000 0.000000 16.341041 15.066334 8.347467 54.167620 51.930997 18.762658 -42.705404 62.205504 -19.927990 0.000000 0.000000 0.000000 
-0.084175 0.903405 0.214547 0.528182 -3.485649 4.181629 9.287915 -0.216998 -20.979805 -8.176723 1.651066 14.825309 7.599844 16.206446 6.797912 0.000000 0.000000 0.000000 -11.769616 0.558190 -21.770889 9.964128 -1.723384 18.005731 -3.905221 -12.248267 9.279150 0.000000 0.000000 0.000000 4.518573 -2.958951 40.776029 -4.961164 1.717605 -24.723849 -5.692970 7.299172 23.737712 16.425461 -2.073113 -48.507895 0.000000 0.000000 0.000000 -4.481477 -29.733802 10.735408 -39.540088 -43.451817 7.625526 69.213491 -66.668352 -45.322747 0.000000 0.000000 0.000000 16.639714 14.952500 8.254597 55.873009 51.309099 19.175842 -42.631110 64.236334 -20.695342 0.000000 0.000000 0.000000 
-0.084526 0.903661 0.214481 0.493220 -3.456738 4.302489 9.344256 -0.211116 -21.103349 -8.162117 1.644130 14.795697 7.577268 16.176904 6.919514 0.000000 0.000000 0.000000 -11.772891 0.560399 -21.912187 10.066357 -1.752219 18.013954 -3.906791 -12.283888 9.445372 0.000000 0.000000 0.000000 4.517977 -2.979039 40.963240 -4.871262 1.695567 -24.725842 -5.838139 6.684436 23.541484 16.363139 -2.158575 -48.151926 0.000000 0.000000 0.000000 -4.334551 -29.795427 10.799948 -39.022283 -43.938761 7.708066 68.499184 -65.592150 -43.771485 0.000000 0.000000 0.000000 17.582360 15.235365 8.425988 56.288481 50.607293 18.862176 -41.820493 65.807864 -20.923835 0.000000 0.000000 0.000000 
-0.084974 0.903566 0.214489 0.478534 -3.559583 4.347938 9.396607 -0.196876 -21.188743 -8.155861 1.653090 14.899942 7.622268 16.251727 6.952930 0.000000 0.000000 0.000000 -11.807463 0.565244 -22.106440 10.211335 -1.791755 18.219605 -3.871312 -12.235478 9.495639 0.000000 0.000000 0.000000 4.423416 -2.945075 41.257756 -4.756179 1.666639 -24.770287 -5.891283 6.395445 23.446113 16.244085 -2.153325 -48.100152 0.000000 0.000000 0.000000 -4.158344 -29.844846 10.821678 -38.540682 -44.436207 7.764702 68.830860 -64.929707 -43.431446 0.000000 0.000000 0.000000 18.139357 15.133117 8.383695 56.794988 49.782761 18.547259 -41.921098 67.534218 -21.734804 0.000000 0.000000 0.000000 
-0.085409 0.903610 0.214643 0.416434 -3.686507 4.462182 9.399436 -0.190977 -21.315936 -7.971481 1.616496 14.985993 7.679707 16.347968 6.995508 0.000000 0.000000 0.000000 -11.835881 0.574468 -22.262039 10.432042 -1.841005 18.228763 -3.821399 -12.171767 9.594126 0.000000 0.000000 0.000000 4.303095 -2.897883 41.554907 -4.701513 1.649780 -24.867876 -5.971307 6.204408 23.380193 16.241561 -2.207690 -47.888348 0.000000 0.000000 0.000000 -3.843989 -29.848027 10.789775 -37.564670 -44.666114 7.559516 69.638074 -64.332896 -43.555384 0.000000 0.000000 0.000000 18.588390 15.130399 8.397454 56.586068 49.329914 18.136403 -42.728476 68.390138 -22.699378 0.000000 0.000000 0.000000 
-0.085840 0.903463 0.214954 0.409228 -3.629238 4.451507 9.409872 -0.191800 -21.438455 -7.929042 1.616002 15.247207 7.656814 16.310151 6.967056 0.000000 0.000000 0.000000 -11.878206 0.565004 -22.372165 10.563636 -1.891042 18.494985 -3.849744 -12.225051 9.615238 0.000000 0.000000 0.000000 4.245850 -2.901764 41.820836 -4.696378 1.649339 -24.822652 -5.946149 6.056039 23.297686 16.142558 -2.202010 -47.807697 0.000000 0.000000 0.000000 -4.062144 -29.911798 10.870448 -36.507142 -44.689200 7.251568 70.830150 -64.233146 -44.390882 0.000000 0.000000 0.000000 18.805138 15.223519 8.451031 55.717571 49.024735 17.533083 -42.941515 68.451539 -22.944532 0.000000 0.000000 0.000000 
-0.086246 0.903387 0.215446 0.446024 -3.561254 4.485398 9.317014 -0.213032 -21.521404 -7.796576 1.584284 15.368172 7.633675 16.272958 6.935080 0.000000 0.000000 0.000000 -11.914291 0.555151 -22.281265 10.597980 -1.898302 18.357013 -3.894851 -12.279769 9.485759 0.000000 0.000000 0.000000 4.240702 -2.922005 41.995444 -4.765452 1.664853 -24.881710 -5.988617 6.136737 23.396962 16.106937 -2.220250 -47.617513 0.000000 0.000000 0.000000 -4.097967 -29.919159 10.869476 -35.482406 -44.536327 6.864084 72.383924 -64.145904 -45.583086 0.000000 0.000000 0.000000 18.625850 15.158693 8.421460 55.114503 49.019877 17.251457 -44.201457 68.029999 -23.605653 0.000000 0.000000 0.000000 
-0.086588 0.903112 0.216064 0.482634 -3.454376 4.446234 9.292601 -0.223682 -21.410737 -7.804031 1.576874 15.289736 7.599495 16.211604 6.781700 0.000000 0.000000 0.000000 -12.052467 0.525098 -22.156199 10.804448 -1.958023 18.318397 -3.954251 -12.356802 9.355033 0.000000 0.000000 0.000000 4.206388 -2.931545 42.093208 -4.780593 1.671432 -24.771818 -6.062881 6.252808 23.296135 16.215328 -2.258141 -47.519234 0.000000 0.000000 0.000000 -4.249261 -29.685029 10.789875 -34.616769 -44.010082 6.426996 74.524434 -64.273944 -47.458613 0.000000 0.000000 0.000000 18.513687 15.023820 8.371888 54.160242 49.035058 16.842769 -45.570373 67.310654 -24.215102 0.000000 0.000000 0.000000 
-0.086844 0.902830 0.216620 0.552649 -3.292678 4.384252 9.294995 -0.231183 -21.481672 -7.930869 1.613959 15.533471 7.536601 16.105434 6.698171 0.000000 0.000000 0.000000 -12.096319 0.503987 -21.847693 10.774600 -1.947382 18.036730 -4.047449 -12.461522 9.049839 0.000000 0.000000 0.000000 4.279683 -2.996679 42.247704 -4.911118 1.704514 -24.729473 -6.221457 6.500657 23.269006 16.453660 -2.297261 -47.592505 0.000000 0.000000 0.000000 -4.385633 -29.806013 10.822542 -33.465077 -43.714052 5.975335 76.081650 -63.936562 -48.568506 0.000000 0.000000 0.000000 18.133612 14.994117 8.377735 52.898976 49.358620 16.490462 -47.940129 66.282523 -25.306142 0.000000 0.000000 0.000000 
-0.086929 0.902717 0.217005 0.516314 -3.233170 4.293947 9.337114 -0.224733 -21.544029 -7.934267 1.627742 15.850483 7.509984 16.057740 6.643858 0.000000 0.000000 0.000000 -12.092826 0.497206 -21.681423 10.851048 -1.968529 17.989891 -4.071819 -12.487390 8.978252 0.000000 0.000000 0.000000 4.300025 -3.024991 42.402971 -4.954163 1.718200 -24.575018 -6.243122 6.764018 23.197680 16.596519 -2.329426 -47.549392 0.000000 0.000000 0.000000 -4.295284 -29.888595 10.800014 -32.416642 -43.614731 5.618866 77.095432 -63.254659 -48.949028 0.000000 0.000000 0.000000 17.575713 14.920382 8.314236 51.588001 49.827790 16.209712 -49.230163 65.355022 -25.715440 0.000000 0.000000 0.000000 
-0.086879 0.902270 0.217180 0.484183 -3.181624 4.129070 9.359316 -0.219834 -21.556157 -7.928119 1.641148 16.203257 7.498503 16.028024 6.474835 0.000000 0.000000 0.000000 -12.080651 0.489860 -21.473244 10.895023 -1.983078 17.992126 -4.106959 -12.509090 8.777166 0.000000 0.000000 0.000000 4.334140 -3.065638 42.699345 -4.930072 1.713151 -24.641740 -6.306127 7.007429 23.279350 16.890764 -2.399049 -47.667797 0.000000 0.000000 0.000000 -4.401911 -30.135514 10.877403 -31.130281 -43.896630 5.288368 76.306820 -62.656058 -47.965274 0.000000 0.000000 0.000000 17.218513 14.902661 8.304555 50.241244 50.072347 15.753037 -50.067490 64.799472 -26.000004 0.000000 0.000000 0.000000 
-0.086788 0.901826 0.217185 0.513026 -3.047643 4.002583 9.313911 -0.233203 -21.624426 -7.929662 1.650175 16.520483 7.454317 15.947338 6.333813 0.000000 0.000000 0.000000 -12.118043 0.471439 -21.344267 10.893466 -1.995528 18.069032 -4.177164 -12.597527 8.590938 0.000000 0.000000 0.000000 4.340183 -3.102909 42.904432 -5.039832 1.741756 -24.619287 -6.285533 7.026563 23.260296 16.848584 -2.396641 -47.586229 0.000000 0.000000 0.000000 -4.200264 -30.693989 11.035986 -29.797889 -44.435171 5.027108 74.326039 -61.597675 -45.649336 0.000000 0.000000 0.000000 16.935623 15.140635 8.396019 49.450701 50.481341 15.641183 -49.730055 64.134350 -25.490669 0.000000 0.000000 0.000000 
-0.086753 0.901517 0.217012 0.447317 -2.781316 3.805278 9.412761 -0.226125 -21.597247 -8.015577 1.670471 16.748932 7.341278 15.749546 6.183387 0.000000 0.000000 0.000000 -12.020233 0.461236 -21.106903 10.838647 -2.002236 18.129468 -4.285247 -12.762571 8.472988 0.000000 0.000000 0.000000 4.417946 -3.195669 43.122645 -4.971853 1.730926 -24.616548 -6.436202 6.980774 23.308272 16.889011 -2.452768 -47.391954 0.000000 0.000000 0.000000 -4.019568 -31.085594 11.129994 -28.818522 -45.268044 4.913928 72.135256 -60.678197 -43.325555 0.000000 0.000000 0.000000 16.889854 15.397192 8.533524 48.952208 50.816599 15.595129 -49.182717 63.902765 -25.059669 0.000000 0.000000 0.000000 
